<svg xmlns="http://www.w3.org/2000/svg" viewBox="0 0 52.53 130.02"><title>COLON</title><g id="Layer_2" data-name="Layer 2"><g id="Background"><path d="M21,39.17a17.41,17.41,0,0,1-5-12.66A17,17,0,0,1,33.51,9,17,17,0,0,1,51,26.51a17.41,17.41,0,0,1-5,12.66,16.79,16.79,0,0,1-12.55,5.09A16.75,16.75,0,0,1,21,39.17Zm0,84.26A18.62,18.62,0,0,1,21,98.1,16.78,16.78,0,0,1,33.51,93,16.82,16.82,0,0,1,46.06,98.1a18.62,18.62,0,0,1,0,25.33,16.83,16.83,0,0,1-12.55,5.09A16.79,16.79,0,0,1,21,123.43Z" fill="#18267a" stroke="#dd1e61" stroke-miterlimit="10" stroke-width="3"/></g><g id="Bottom_Layer" data-name="Bottom Layer"><path d="M17,37.17a17.41,17.41,0,0,1-5-12.66A17,17,0,0,1,29.51,7,17,17,0,0,1,47,24.51a17.41,17.41,0,0,1-5,12.66,16.79,16.79,0,0,1-12.55,5.09A16.75,16.75,0,0,1,17,37.17Zm0,84.26A18.62,18.62,0,0,1,17,96.1,16.78,16.78,0,0,1,29.51,91,16.82,16.82,0,0,1,42.06,96.1a18.62,18.62,0,0,1,0,25.33,16.83,16.83,0,0,1-12.55,5.09A16.79,16.79,0,0,1,17,121.43Z" fill="#00092a"/></g><g id="Middle_Layer" data-name="Middle Layer"><path d="M10,33.17A17.41,17.41,0,0,1,5,20.51,17,17,0,0,1,22.51,3,17,17,0,0,1,40,20.51a17.41,17.41,0,0,1-5,12.66,16.79,16.79,0,0,1-12.55,5.09A16.75,16.75,0,0,1,10,33.17Zm0,84.26A18.62,18.62,0,0,1,10,92.1,16.78,16.78,0,0,1,22.51,87,16.82,16.82,0,0,1,35.06,92.1a18.62,18.62,0,0,1,0,25.33,16.83,16.83,0,0,1-12.55,5.09A16.79,16.79,0,0,1,10,117.43Z" fill="#ed6c02"/></g><g id="Top_Layer" data-name="Top Layer"><path d="M5,30.17A17.41,17.41,0,0,1,0,17.51,17,17,0,0,1,17.51,0,17,17,0,0,1,35,17.51a17.41,17.41,0,0,1-5,12.66,16.79,16.79,0,0,1-12.55,5.09A16.75,16.75,0,0,1,5,30.17Zm0,84.26A18.62,18.62,0,0,1,5,89.1,16.78,16.78,0,0,1,17.51,84,16.82,16.82,0,0,1,30.06,89.1a18.62,18.62,0,0,1,0,25.33,16.83,16.83,0,0,1-12.55,5.09A16.79,16.79,0,0,1,5,114.43Z" fill="#fdc005"/></g></g></svg>