<svg xmlns="http://www.w3.org/2000/svg" viewBox="0 0 144.46 180.37"><title>EIGHT</title><g id="Layer_2" data-name="Layer 2"><g id="Top_Layer" data-name="Top Layer"><path d="M50.9,56q0,12.08,7.45,18.34t22.13,6.28q14.67,0,22.13-6.28T110.06,56q0-24.13-29.58-24.14T50.9,56Zm63.42,73.61q0-25.34-33.84-25.33T46.64,129.65Q46.64,155,80.48,155T114.32,129.65ZM135,106Q143,116.63,143,132q0,22-16.57,34.44T80.48,178.87q-29.36,0-45.91-12.42T18,132q0-15.37,8.05-26.15T48.77,91.31a41.11,41.11,0,0,1-19.65-14.8A39.78,39.78,0,0,1,22,53q0-20.83,15.62-32.9T80.48,8q27.21,0,42.84,12.07T138.94,53q0,13.72-7.1,23.9a38.3,38.3,0,0,1-19.41,14.44Q127.1,95.33,135,106Z" fill="#18267a"/><path d="M80.48,180.37c-19.81,0-35.56-4.28-46.81-12.72S16.5,147.12,16.5,132c0-10.54,2.81-19.64,8.34-27a40.15,40.15,0,0,1,19.53-13.9A41.69,41.69,0,0,1,27.9,77.38,41.37,41.37,0,0,1,20.52,53c0-14.31,5.45-25.78,16.21-34.09S62.08,6.5,80.48,6.5s33.12,4.17,43.75,12.38S140.44,38.66,140.44,53a42.37,42.37,0,0,1-7.37,24.76,39.33,39.33,0,0,1-16.19,13.41,40.75,40.75,0,0,1,19.35,13.94h0c5.46,7.34,8.23,16.4,8.23,26.93,0,15.1-5.78,27.09-17.17,35.64S100.28,180.37,80.48,180.37Zm0-170.87c-17.72,0-31.82,4-41.92,11.76s-15,18.38-15,31.71a38.48,38.48,0,0,0,6.83,22.68A39.7,39.7,0,0,0,49.3,89.9l4.43,1.67-4.59,1.19c-9.4,2.42-16.76,7.14-21.89,14S19.5,122.14,19.5,132c0,14.11,5.37,25.29,16,33.24s25.87,12.12,45,12.12,34.28-4.08,45-12.12,16-19.13,16-33.24c0-9.87-2.57-18.33-7.63-25.14h0c-5.06-6.79-12.39-11.54-21.8-14.12l-4.66-1.28,4.57-1.58A36.93,36.93,0,0,0,130.61,76a39.43,39.43,0,0,0,6.83-23c0-13.33-5.06-24-15-31.71S98.2,9.5,80.48,9.5Zm0,147c-23.45,0-35.34-9-35.34-26.82S57,102.82,80.48,102.82s35.34,9,35.34,26.83S103.93,156.47,80.48,156.47Zm0-50.65c-21.76,0-32.34,7.8-32.34,23.83s10.58,23.82,32.34,23.82,32.34-7.79,32.34-23.82S102.24,105.82,80.48,105.82Zm0-23.66c-10.1,0-17.87-2.23-23.09-6.63s-8-11-8-19.49c0-17,10.45-25.64,31.08-25.64S111.56,39,111.56,56c0,8.48-2.68,15-8,19.49S90.58,82.16,80.48,82.16Zm0-48.76C61.58,33.4,52.4,40.81,52.4,56c0,7.66,2.26,13.28,6.92,17.2s11.79,5.92,21.16,5.92,16.49-2,21.16-5.92,6.92-9.54,6.92-17.2C108.56,40.81,99.38,33.4,80.48,33.4Z" fill="#dd1e61"/><path d="M44.9,55q0,12.08,7.45,18.34t22.13,6.28q14.67,0,22.13-6.28T104.06,55q0-24.13-29.58-24.14T44.9,55Zm63.42,73.61q0-25.34-33.84-25.33T40.64,128.65Q40.64,154,74.48,154T108.32,128.65ZM129,105Q137,115.63,137,131q0,22-16.57,34.44T74.48,177.87q-29.36,0-45.91-12.42T12,131q0-15.37,8.05-26.15T42.77,90.31a41.11,41.11,0,0,1-19.65-14.8A39.78,39.78,0,0,1,16,52q0-20.83,15.62-32.9T74.48,7q27.21,0,42.84,12.07T132.94,52q0,13.72-7.1,23.9a38.3,38.3,0,0,1-19.41,14.44Q121.1,94.33,129,105Z" fill="#00092a"/><path d="M37.9,51q0,12.08,7.45,18.34t22.13,6.28q14.67,0,22.13-6.28T97.06,51q0-24.13-29.58-24.14T37.9,51Zm63.42,73.61q0-25.34-33.84-25.33T33.64,124.65Q33.64,150,67.48,150T101.32,124.65ZM122,101Q130,111.63,130,127q0,22-16.57,34.44T67.48,173.87q-29.36,0-45.91-12.42T5,127q0-15.37,8.05-26.15T35.77,86.31a41.11,41.11,0,0,1-19.65-14.8A39.78,39.78,0,0,1,9,48q0-20.83,15.62-32.9T67.48,3q27.21,0,42.84,12.07T125.94,48q0,13.72-7.1,23.9A38.3,38.3,0,0,1,99.43,86.31Q114.1,90.33,122,101Z" fill="#ed6c02"/><path d="M32.9,48q0,12.08,7.45,18.34t22.13,6.28q14.67,0,22.13-6.28T92.06,48q0-24.13-29.58-24.14T32.9,48Zm63.42,73.61q0-25.34-33.84-25.33T28.64,121.65Q28.64,147,62.48,147T96.32,121.65ZM117,98Q125,108.63,125,124q0,22-16.57,34.44T62.48,170.87q-29.35,0-45.91-12.42T0,124q0-15.37,8.05-26.15T30.77,83.31a41.11,41.11,0,0,1-19.65-14.8A39.78,39.78,0,0,1,4,45q0-20.83,15.62-32.9T62.48,0q27.21,0,42.84,12.07T120.94,45q0,13.72-7.1,23.9A38.3,38.3,0,0,1,94.43,83.31Q109.1,87.33,117,98Z" fill="#fdc005"/></g></g></svg>