<svg xmlns="http://www.w3.org/2000/svg" viewBox="0 0 133.54 177.85"><title>FIVE</title><g id="Layer_2" data-name="Layer 2"><g id="Top_Layer" data-name="Top Layer"><path d="M107.62,77.51a46,46,0,0,1,18,18.26q6.43,11.72,6.44,26.88,0,15.84-7.24,28a49.44,49.44,0,0,1-20.44,19Q91.2,176.4,74,176.39a85.31,85.31,0,0,1-27.9-4.7,73.22,73.22,0,0,1-23.32-12.75q-5.28-4.59-5.28-10.8a13.25,13.25,0,0,1,2.87-8.61A8.5,8.5,0,0,1,27.12,136a12,12,0,0,1,4.36.8,26.29,26.29,0,0,1,4.82,2.64,87.74,87.74,0,0,0,17.92,9.88,50.16,50.16,0,0,0,18.61,3.45q15.15,0,23.19-7.58t8-21.6q0-13.55-8.15-21.47t-22.4-7.93a47,47,0,0,0-16,2.53,50.07,50.07,0,0,0-14.35,8.5,15.73,15.73,0,0,1-9,3,11.56,11.56,0,0,1-7.81-2.76,9.19,9.19,0,0,1-3.22-7.35V26.41q0-6.43,3.68-10.11t10.33-3.68h76.49q13.79,0,13.78,11.49T113.71,35.59H52.15V79.23Q63.87,71,80.87,71,96,71,107.62,77.51Z" fill="#18267a"/><path d="M74,177.85a87,87,0,0,1-28.38-4.79,75.07,75.07,0,0,1-23.77-13C18,156.7,16,152.7,16,148.14a14.78,14.78,0,0,1,3.2-9.53,9.91,9.91,0,0,1,7.91-4.1,13.47,13.47,0,0,1,4.89.91,27.67,27.67,0,0,1,5.1,2.78,86.91,86.91,0,0,0,17.65,9.74,49,49,0,0,0,18.07,3.34c9.67,0,17.14-2.42,22.2-7.18s7.58-11.66,7.58-20.54c0-8.58-2.6-15.45-7.72-20.43s-12.32-7.51-21.38-7.51a45.6,45.6,0,0,0-15.46,2.44,48.78,48.78,0,0,0-13.94,8.26l-.09.07a17.17,17.17,0,0,1-9.78,3.24,13,13,0,0,1-8.76-3.11,10.6,10.6,0,0,1-3.72-8.45V26.41c0-4.67,1.38-8.42,4.1-11.14s6.54-4.1,11.36-4.1h76.49c12.6,0,15.24,7,15.24,12.94s-2.64,12.94-15.24,12.94H53.61V76.53c7.6-4.66,16.75-7,27.26-7h0c10.31,0,19.55,2.27,27.47,6.73h0a47.62,47.62,0,0,1,18.59,18.83,56.62,56.62,0,0,1,6.61,27.58c0,10.78-2.5,20.46-7.44,28.76a51,51,0,0,1-21,19.5C96.1,175.52,85.64,177.85,74,177.85ZM27.12,137.42a7.08,7.08,0,0,0-5.65,3,11.81,11.81,0,0,0-2.54,7.7c0,3.73,1.56,6.9,4.78,9.7a72,72,0,0,0,22.83,12.47A84.13,84.13,0,0,0,74,174.94c11.2,0,21.22-2.23,29.77-6.62a48.1,48.1,0,0,0,19.86-18.4c4.66-7.84,7-17,7-27.27a53.76,53.76,0,0,0-6.25-26.18,44.77,44.77,0,0,0-17.47-17.69h0c-7.48-4.22-16.24-6.36-26-6.36-11,0-20.35,2.69-27.88,8L50.7,82V34.14h63c8.41,0,12.33-3.19,12.33-10s-3.92-10-12.33-10H37.22c-4,0-7.15,1.09-9.3,3.25s-3.25,5.15-3.25,9.08V98.07a7.71,7.71,0,0,0,2.7,6.24,10.11,10.11,0,0,0,6.87,2.41,14.29,14.29,0,0,0,8.08-2.7,51.91,51.91,0,0,1,14.74-8.7,48.61,48.61,0,0,1,16.45-2.61c9.84,0,17.72,2.8,23.41,8.33s8.6,13.13,8.6,22.52c0,9.72-2.86,17.34-8.5,22.66s-13.75,8-24.19,8a51.94,51.94,0,0,1-19.14-3.54,89.37,89.37,0,0,1-18.22-10A24.83,24.83,0,0,0,31,138.13,10.46,10.46,0,0,0,27.12,137.42Z" fill="#dd1e61"/><path d="M105.28,74.13A47.66,47.66,0,0,1,123.93,93q6.65,12.11,6.65,27.79,0,16.4-7.48,29A51.16,51.16,0,0,1,102,169.39q-13.65,7-31.47,7a88.15,88.15,0,0,1-28.86-4.86,75.64,75.64,0,0,1-24.11-13.19c-3.65-3.16-5.47-6.89-5.47-11.16a13.74,13.74,0,0,1,3-8.91,8.81,8.81,0,0,1,7-3.68,12.41,12.41,0,0,1,4.51.83,26.37,26.37,0,0,1,5,2.73,90.09,90.09,0,0,0,18.53,10.21,51.84,51.84,0,0,0,19.24,3.57q15.67,0,24-7.84t8.32-22.33q0-14-8.43-22.21T70,91.35A48.46,48.46,0,0,0,53.5,94a51.58,51.58,0,0,0-14.85,8.79,16.21,16.21,0,0,1-9.27,3.08A12,12,0,0,1,21.31,103,9.5,9.5,0,0,1,18,95.39V21.28q0-6.64,3.8-10.45T32.47,7h79.1q14.27,0,14.26,11.87T111.57,30.78H47.91V75.91Q60,67.36,77.61,67.36,93.29,67.36,105.28,74.13Z" fill="#00092a"/><path d="M98.25,70.12A47.51,47.51,0,0,1,116.9,89q6.64,12.12,6.65,27.79,0,16.39-7.48,29a51.13,51.13,0,0,1-21.14,19.6q-13.67,7-31.48,7a88.16,88.16,0,0,1-28.86-4.87,75.73,75.73,0,0,1-24.11-13.18Q5,149.57,5,143.16a13.76,13.76,0,0,1,3-8.91,8.8,8.8,0,0,1,7-3.68,12.45,12.45,0,0,1,4.51.83,27.4,27.4,0,0,1,5,2.74A90.78,90.78,0,0,0,43,144.35a52,52,0,0,0,19.24,3.56q15.67,0,24-7.84t8.31-22.33q0-14-8.43-22.21T63,87.34A48.52,48.52,0,0,0,46.47,90a51.94,51.94,0,0,0-14.85,8.79,16.22,16.22,0,0,1-9.26,3.09A12,12,0,0,1,14.28,99,9.49,9.49,0,0,1,11,91.38V17.26q0-6.65,3.8-10.45T25.45,3h79.1Q118.8,3,118.8,14.89T104.55,26.77H40.89V71.9Q53,63.35,70.58,63.35,86.26,63.35,98.25,70.12Z" fill="#ed6c02"/><path d="M93.24,67.11A47.49,47.49,0,0,1,111.88,86q6.65,12.12,6.65,27.79,0,16.39-7.48,29a51.13,51.13,0,0,1-21.14,19.6q-13.66,7-31.47,7a88.18,88.18,0,0,1-28.87-4.87A75.92,75.92,0,0,1,5.46,151.32Q0,146.57,0,140.15a13.76,13.76,0,0,1,3-8.91,8.8,8.8,0,0,1,7-3.68,12.45,12.45,0,0,1,4.51.83,27.56,27.56,0,0,1,5,2.73A90.37,90.37,0,0,0,38,141.34a52,52,0,0,0,19.24,3.56q15.68,0,24-7.84t8.31-22.33q0-14-8.43-22.21T58,84.33a48.52,48.52,0,0,0-16.51,2.61A51.71,51.71,0,0,0,26.6,95.73a16.2,16.2,0,0,1-9.26,3.09A12,12,0,0,1,9.26,96a9.49,9.49,0,0,1-3.32-7.6V14.25q0-6.64,3.8-10.45T20.43,0h79.1q14.25,0,14.25,11.88T99.53,23.75H35.87V68.89Q48,60.34,65.56,60.34,81.24,60.34,93.24,67.11Z" fill="#fdc005"/></g></g></svg>