<svg xmlns="http://www.w3.org/2000/svg" viewBox="0 0 157.14 183.77"><title>FOUR</title><g id="Layer_2" data-name="Layer 2"><g id="Top_Layer" data-name="Top Layer"><path d="M151.88,123.93q-3.69-3.2-11.07-3.2H128.26V20.3c0-5.08-1.57-9-4.68-11.81A16.07,16.07,0,0,0,112.5,4.3a16.86,16.86,0,0,0-7.63,1.85,16.55,16.55,0,0,0-6.15,5.29L22.66,120.73a18.94,18.94,0,0,0-3.94,11.32,13.11,13.11,0,0,0,3.69,9.48q3.69,3.81,10.34,3.81H97.24v19.45q0,7.64,4.31,11.81a15.39,15.39,0,0,0,11.2,4.19A15.4,15.4,0,0,0,124,176.6q4.3-4.18,4.31-11.81V145.34h12.55q14.76,0,14.77-12.31Q155.58,127.14,151.88,123.93Zm-54.64-3.2H51.46L97.24,54.51Z" fill="#18267a"/><path d="M112.75,182.35a17,17,0,0,1-12.29-4.63c-3.17-3.08-4.78-7.43-4.78-12.93V146.9H32.75c-4.85,0-8.71-1.44-11.46-4.29a14.65,14.65,0,0,1-4.13-10.56,20.6,20.6,0,0,1,4.24-12.24l76-109.26a18.21,18.21,0,0,1,6.73-5.8,18.55,18.55,0,0,1,8.33-2,17.66,17.66,0,0,1,12.12,4.58c3.45,3.09,5.2,7.46,5.2,13v98.87h11c5.28,0,9.35,1.2,12.1,3.58h0c2.8,2.43,4.23,5.89,4.23,10.28,0,6.33-2.84,13.87-16.33,13.87h-11v17.89c0,5.5-1.61,9.85-4.79,12.93A17,17,0,0,1,112.75,182.35ZM112.5,5.86a15.45,15.45,0,0,0-6.93,1.68A15.08,15.08,0,0,0,100,12.35l-76,109.27a17.61,17.61,0,0,0-3.66,10.43,11.47,11.47,0,0,0,3.25,8.39c2.18,2.25,5.19,3.34,9.22,3.34H98.8v21c0,4.69,1.25,8.19,3.83,10.69a13.81,13.81,0,0,0,10.12,3.75,13.77,13.77,0,0,0,10.11-3.75c2.54-2.47,3.84-6.07,3.84-10.69v-21h14.11c9,0,13.21-3.41,13.21-10.75,0-3.49-1-6.08-3.16-7.92s-5.54-2.82-10.05-2.82H126.7V20.3c0-4.66-1.36-8.14-4.16-10.65A14.44,14.44,0,0,0,112.5,5.86ZM98.8,122.29H48.48L98.8,49.52Zm-44.37-3.12H95.68V59.51Z" fill="#dd1e61"/><path d="M145.64,126.91q-3.69-3.19-11.07-3.2H122V23.28c0-5.08-1.57-9-4.68-11.82a16.11,16.11,0,0,0-11.08-4.18,16.86,16.86,0,0,0-7.63,1.85,16.47,16.47,0,0,0-6.15,5.29L16.42,123.71A18.94,18.94,0,0,0,12.48,135a13.11,13.11,0,0,0,3.69,9.48q3.69,3.81,10.34,3.81H91v19.45q0,7.62,4.31,11.81a15.39,15.39,0,0,0,11.2,4.19,15.42,15.42,0,0,0,11.2-4.19Q122,175.4,122,167.77V148.32h12.55q14.76,0,14.77-12.31Q149.34,130.12,145.64,126.91ZM91,123.71H45.22L91,57.49Z" fill="#00092a"/><path d="M138.36,122.75q-3.69-3.19-11.07-3.2H114.74V19.12c0-5.08-1.57-9-4.68-11.82A16.11,16.11,0,0,0,99,3.12,16.86,16.86,0,0,0,91.35,5a16.47,16.47,0,0,0-6.15,5.29L9.14,119.55A18.94,18.94,0,0,0,5.2,130.87a13.11,13.11,0,0,0,3.69,9.48q3.69,3.81,10.34,3.81H83.72v19.45q0,7.62,4.31,11.81a15.39,15.39,0,0,0,11.2,4.19,15.42,15.42,0,0,0,11.2-4.19c2.86-2.79,4.31-6.73,4.31-11.81V144.16h12.55q14.76,0,14.77-12.31Q142.06,126,138.36,122.75Zm-54.64-3.2H37.94L83.72,53.33Z" fill="#ed6c02"/><path d="M133.16,119.63q-3.69-3.19-11.07-3.2H109.53V16c0-5.09-1.56-9-4.67-11.82A16.11,16.11,0,0,0,93.78,0a16.86,16.86,0,0,0-7.63,1.85A16.47,16.47,0,0,0,80,7.14L3.94,116.43A18.94,18.94,0,0,0,0,127.75a13.11,13.11,0,0,0,3.69,9.48Q7.38,141,14,141H78.52v19.45q0,7.62,4.31,11.81A15.39,15.39,0,0,0,94,176.49a15.42,15.42,0,0,0,11.2-4.19q4.29-4.19,4.3-11.81V141h12.56q14.76,0,14.77-12.31Q136.86,122.84,133.16,119.63Zm-54.64-3.2H32.74L78.52,50.21Z" fill="#fdc005"/></g></g></svg>