<svg xmlns="http://www.w3.org/2000/svg" viewBox="0 0 140.45 178.81"><title>NINE</title><g id="Layer_2" data-name="Layer 2"><g id="Top_Layer" data-name="Top Layer"><path d="M96.43,83.72q8.08-8.31,8.09-21.67,0-13.59-8.09-21.91t-21.2-8.32q-12.89,0-20.62,8.32T46.88,62.05q0,13.59,7.73,21.79T75.23,92Q88.34,92,96.43,83.72ZM122,29.13q17,21.2,17,60.56,0,27-8,46.75t-22.84,30.34q-14.88,10.54-35,10.55a79.55,79.55,0,0,1-26.83-4.81,69.71,69.71,0,0,1-22.84-13,17.52,17.52,0,0,1-4.34-5,12.72,12.72,0,0,1-1.29-6,13.57,13.57,0,0,1,2.93-8.79,8.66,8.66,0,0,1,6.91-3.63,12.08,12.08,0,0,1,4.45.82,33.42,33.42,0,0,1,5.16,2.69Q56.71,153.19,72,153.19q17.1,0,26.94-15.81T109.2,93A40.25,40.25,0,0,1,93,109.73a47.48,47.48,0,0,1-24.14,6.21,51.23,51.23,0,0,1-26.24-6.68A46.55,46.55,0,0,1,24.73,90.51,57.58,57.58,0,0,1,18.29,63a56.42,56.42,0,0,1,7.15-28.47A51,51,0,0,1,45.12,15a57.12,57.12,0,0,1,28.47-7Q105,7.92,122,29.13Z" fill="#18267a"/><path d="M73.12,178.81a81.24,81.24,0,0,1-27.33-4.89,71.36,71.36,0,0,1-23.32-13.28,19.26,19.26,0,0,1-4.68-5.47,14.33,14.33,0,0,1-1.45-6.66,15,15,0,0,1,3.26-9.72,10.1,10.1,0,0,1,8.06-4.19,13.72,13.72,0,0,1,5,.92,35.76,35.76,0,0,1,5.4,2.82c12.72,8.89,24.1,13.37,33.9,13.37,11,0,19.35-5,25.68-15.12,5.73-9.19,9-22,9.89-38A42.42,42.42,0,0,1,93.78,111a49.07,49.07,0,0,1-24.88,6.41,52.88,52.88,0,0,1-27-6.88A48.23,48.23,0,0,1,23.42,91.21,59.21,59.21,0,0,1,16.81,63a58.14,58.14,0,0,1,7.34-29.2A52.62,52.62,0,0,1,44.39,13.65a58.93,58.93,0,0,1,29.2-7.21c21.3,0,38,7.32,49.54,21.76h0c11.49,14.34,17.32,35,17.32,61.49,0,18.07-2.72,34-8.08,47.3S119.12,160.83,109,168,86.8,178.81,73.12,178.81ZM27.66,137.57a7.2,7.2,0,0,0-5.75,3.08,12,12,0,0,0-2.6,7.86,11.21,11.21,0,0,0,1.12,5.28,16.27,16.27,0,0,0,4,4.6,68.86,68.86,0,0,0,22.39,12.73,78.12,78.12,0,0,0,26.33,4.72c13.06,0,24.55-3.45,34.17-10.27s17.15-16.82,22.33-29.68,7.86-28.51,7.86-46.2c0-25.77-5.61-45.83-16.67-59.64h0C109.83,16.35,94,9.41,73.59,9.41a56,56,0,0,0-27.74,6.83,49.75,49.75,0,0,0-19.12,19A55.16,55.16,0,0,0,19.78,63,56.28,56.28,0,0,0,26,89.81,45.45,45.45,0,0,0,43.41,108a50,50,0,0,0,25.49,6.47,46.18,46.18,0,0,0,23.39-6A38.92,38.92,0,0,0,107.88,92.3l2.91-5.7-.1,6.4c-.32,19.25-3.86,34.44-10.54,45.16-6.82,11-16.31,16.52-28.2,16.52-10.42,0-22.37-4.66-35.53-13.86a32,32,0,0,0-4.85-2.53A10.86,10.86,0,0,0,27.66,137.57Zm47.57-44c-9,0-16.28-2.91-21.7-8.66s-8.14-13.4-8.14-22.81,2.74-17.12,8.13-22.92,12.73-8.8,21.71-8.8,16.61,3,22.27,8.77S106,52.63,106,62.05c0,9.26-2.86,16.9-8.5,22.7h0C91.84,90.57,84.35,93.52,75.23,93.52Zm0-60.21c-8.12,0-14.69,2.63-19.53,7.84s-7.34,12.27-7.34,20.9,2.47,15.61,7.33,20.77,11.41,7.73,19.54,7.73c8.29,0,15.07-2.64,20.14-7.87h0c5.08-5.22,7.66-12.17,7.66-20.63,0-8.62-2.58-15.64-7.66-20.88S83.52,33.31,75.23,33.31Z" fill="#dd1e61"/><path d="M90.49,82.73q8.08-8.31,8.09-21.67,0-13.59-8.09-21.91t-21.2-8.32q-12.9,0-20.62,8.32T40.94,61.06q0,13.59,7.73,21.79t20.62,8.2Q82.4,91.05,90.49,82.73ZM116,28.14q17,21.2,17,60.56,0,27-8,46.75t-22.84,30.34q-14.88,10.54-35,10.55a79.55,79.55,0,0,1-26.83-4.81,69.71,69.71,0,0,1-22.84-13,17.52,17.52,0,0,1-4.34-5,12.72,12.72,0,0,1-1.29-6,13.57,13.57,0,0,1,2.93-8.79,8.66,8.66,0,0,1,6.91-3.63,12.08,12.08,0,0,1,4.45.82,33.42,33.42,0,0,1,5.16,2.69Q50.77,152.2,66,152.2q17.1,0,26.94-15.81T103.26,92A40.22,40.22,0,0,1,87.1,108.74,47.48,47.48,0,0,1,63,115a51.23,51.23,0,0,1-26.24-6.68A46.55,46.55,0,0,1,18.79,89.52Q12.34,77.46,12.35,62A56.42,56.42,0,0,1,19.5,33.52,51,51,0,0,1,39.18,14a57.12,57.12,0,0,1,28.47-7Q99,6.93,116,28.14Z" fill="#00092a"/><path d="M83.56,78.77q8.09-8.31,8.09-21.67,0-13.59-8.09-21.91t-21.2-8.32q-12.9,0-20.62,8.32T34,57.1q0,13.59,7.73,21.79t20.62,8.2Q75.47,87.09,83.56,78.77ZM109.1,24.18q17,21.2,17,60.56,0,27-8,46.75T95.28,161.83q-14.88,10.54-35,10.55a79.55,79.55,0,0,1-26.83-4.81,69.71,69.71,0,0,1-22.84-13,17.52,17.52,0,0,1-4.34-5,12.72,12.72,0,0,1-1.29-6,13.51,13.51,0,0,1,2.93-8.79,8.66,8.66,0,0,1,6.91-3.63,12.08,12.08,0,0,1,4.45.82,33.42,33.42,0,0,1,5.16,2.69q19.44,13.59,34.68,13.59,17.1,0,26.94-15.81T96.33,88a40.22,40.22,0,0,1-16.16,16.76A47.48,47.48,0,0,1,56,111a51.23,51.23,0,0,1-26.24-6.68A46.55,46.55,0,0,1,11.86,85.56Q5.41,73.5,5.42,58a56.42,56.42,0,0,1,7.15-28.47A51,51,0,0,1,32.25,10,57.12,57.12,0,0,1,60.72,3Q92.12,3,109.1,24.18Z" fill="#ed6c02"/><path d="M78.61,75.8q8.08-8.31,8.09-21.67,0-13.59-8.09-21.91T57.41,23.9q-12.9,0-20.62,8.32T29.06,54.13q0,13.59,7.73,21.79t20.62,8.2Q70.52,84.12,78.61,75.8Zm25.54-54.6q17,21.21,17,60.57,0,27-8,46.75T90.33,158.86q-14.88,10.54-35,10.55a79.55,79.55,0,0,1-26.83-4.81,69.71,69.71,0,0,1-22.84-13,17.52,17.52,0,0,1-4.34-5,12.72,12.72,0,0,1-1.29-6,13.51,13.51,0,0,1,2.93-8.79,8.66,8.66,0,0,1,6.91-3.63,12.08,12.08,0,0,1,4.45.82,33.42,33.42,0,0,1,5.16,2.69q19.44,13.59,34.68,13.59,17.1,0,26.94-15.81T91.38,85.05a40.18,40.18,0,0,1-16.17,16.76A47.42,47.42,0,0,1,51.08,108a51.23,51.23,0,0,1-26.24-6.68A46.55,46.55,0,0,1,6.91,82.59Q.46,70.53.47,55.06A56.42,56.42,0,0,1,7.62,26.59,51,51,0,0,1,27.3,7,57.12,57.12,0,0,1,55.77,0Q87.17,0,104.15,21.2Z" fill="#fdc005"/></g></g></svg>