<svg xmlns="http://www.w3.org/2000/svg" viewBox="0 0 133.01 182.28"><title>TWO</title><g id="Layer_2" data-name="Layer 2"><g id="Top_Layer" data-name="Top Layer"><path d="M131.47,167.86q0,12.88-14.58,12.88H34.76q-14.82,0-14.82-12.88,0-12.39,14.82-12.39H60V44.66L36.71,59a12.57,12.57,0,0,1-6.08,1.94A10.73,10.73,0,0,1,22,56.57a15.13,15.13,0,0,1-3.52-9.72q0-7.05,6.32-10.94L62.46,12.59q7.29-4.38,13.85-4.38,6.81,0,10.94,4.13t4.13,11.43v131.7h25.51Q131.47,155.47,131.47,167.86Z" fill="#18267a"/><path d="M116.89,182.28H34.76c-13.52,0-16.36-7.84-16.36-14.42,0-6.36,2.84-13.93,16.36-13.93H58.49V47.42l-21,12.89a14.12,14.12,0,0,1-6.88,2.17,12.21,12.21,0,0,1-9.83-4.95,16.68,16.68,0,0,1-3.86-10.68c0-5.25,2.37-9.37,7-12.25L61.65,11.28c5.1-3.06,10-4.61,14.66-4.61a16.4,16.4,0,0,1,12,4.58c3,3.05,4.58,7.26,4.58,12.52V153.93h24c13.32,0,16.12,7.57,16.12,13.93C133,174.44,130.21,182.28,116.89,182.28ZM34.76,157c-9.06,0-13.28,3.44-13.28,10.85,0,7.73,4.22,11.34,13.28,11.34h82.13c8.9,0,13-3.61,13-11.34,0-7.41-4.14-10.85-13-10.85h-27V23.77c0-4.48-1.21-7.86-3.68-10.34s-5.7-3.68-9.85-3.68-8.46,1.4-13.06,4.16L25.61,37.22C21.85,39.54,20,42.69,20,46.85A13.49,13.49,0,0,0,23.2,55.6a9.16,9.16,0,0,0,7.43,3.8,11.1,11.1,0,0,0,5.31-1.74L61.57,41.91V157Z" fill="#dd1e61"/><path d="M125.31,166.83q0,12.88-14.58,12.88H28.6q-14.82,0-14.82-12.88,0-12.39,14.82-12.39H53.87V43.64L30.55,58a12.6,12.6,0,0,1-6.08,2,10.71,10.71,0,0,1-8.63-4.38,15.09,15.09,0,0,1-3.52-9.72q0-7,6.32-10.93L56.3,11.56q7.29-4.38,13.85-4.37,6.81,0,10.94,4.13t4.13,11.42v131.7h25.51Q125.31,154.44,125.31,166.83Z" fill="#00092a"/><path d="M118.12,162.72q0,12.89-14.58,12.88H21.41q-14.82,0-14.82-12.88,0-12.39,14.82-12.39H46.68V39.53L23.36,53.86a12.57,12.57,0,0,1-6.08,2,10.68,10.68,0,0,1-8.62-4.38,15.09,15.09,0,0,1-3.53-9.71q0-7,6.32-10.94L49.11,7.45Q56.4,3.09,63,3.08q6.8,0,10.93,4.13T78,18.63v131.7h25.51Q118.12,150.33,118.12,162.72Z" fill="#ed6c02"/><path d="M113,159.64q0,12.88-14.58,12.88H16.28q-14.82,0-14.82-12.88,0-12.39,14.82-12.39H41.55V36.45L18.22,50.78a12.53,12.53,0,0,1-6.07,1.95,10.71,10.71,0,0,1-8.63-4.38A15.08,15.08,0,0,1,0,38.64,12.18,12.18,0,0,1,6.32,27.7L44,4.37Q51.27,0,57.83,0q6.8,0,10.94,4.13T72.9,15.55v131.7H98.41Q113,147.25,113,159.64Z" fill="#fdc005"/></g></g></svg>