<svg xmlns="http://www.w3.org/2000/svg" viewBox="0 0 141.15 178.24"><title>SEVEN</title><g id="Layer_2" data-name="Layer 2"><g id="Top_Layer" data-name="Top Layer"><path d="M136.33,11.43a12.26,12.26,0,0,1,3.32,8.88,23.29,23.29,0,0,1-3.32,11.36l-75.49,137q-4.74,8-13,8a14.68,14.68,0,0,1-10.06-3.9,12.36,12.36,0,0,1-4.38-9.59,15.71,15.71,0,0,1,2.37-8l67.92-122.6H32.2Q18,32.61,18,20.54,18,8,32.2,8h94.67Q133,8,136.33,11.43Z" fill="#18267a"/><path d="M47.82,178.24A16.21,16.21,0,0,1,36.76,174a13.85,13.85,0,0,1-4.88-10.71,17.26,17.26,0,0,1,2.58-8.8L101.13,34.11H32.2c-13,0-15.7-7.38-15.7-13.57,0-6.4,2.72-14,15.7-14h94.67c4.5,0,8,1.31,10.54,3.89h0a13.76,13.76,0,0,1,3.74,9.92,24.8,24.8,0,0,1-3.51,12.09l-75.49,137C58.7,175.29,53.88,178.24,47.82,178.24ZM32.2,9.5c-8.66,0-12.7,3.51-12.7,11,0,7.21,4,10.57,12.7,10.57h74L37.06,155.93a14.45,14.45,0,0,0-2.18,7.32,10.84,10.84,0,0,0,3.88,8.47,13.1,13.1,0,0,0,9.06,3.52c5,0,8.83-2.39,11.72-7.3L135,30.94a22,22,0,0,0,3.13-10.63,10.72,10.72,0,0,0-2.9-7.84c-1.93-2-4.68-3-8.38-3Z" fill="#dd1e61"/><path d="M130.33,10.43a12.26,12.26,0,0,1,3.32,8.88,23.29,23.29,0,0,1-3.32,11.36l-75.49,137q-4.74,8-13,8a14.68,14.68,0,0,1-10.06-3.9,12.36,12.36,0,0,1-4.38-9.59,15.71,15.71,0,0,1,2.37-8L97.67,31.61H26.2Q12,31.61,12,19.54,12,7,26.2,7h94.67Q127,7,130.33,10.43Z" fill="#00092a"/><path d="M123.33,6.43a12.26,12.26,0,0,1,3.32,8.88,23.29,23.29,0,0,1-3.32,11.36l-75.49,137q-4.74,8-13,8a14.68,14.68,0,0,1-10.06-3.9,12.36,12.36,0,0,1-4.38-9.59,15.71,15.71,0,0,1,2.37-8L90.67,27.61H19.2Q5,27.61,5,15.54,5,3,19.2,3h94.67Q120,3,123.33,6.43Z" fill="#ed6c02"/><path d="M118.33,3.43a12.26,12.26,0,0,1,3.32,8.88,23.29,23.29,0,0,1-3.32,11.36l-75.49,137q-4.74,8-13,8a14.68,14.68,0,0,1-10.06-3.9,12.36,12.36,0,0,1-4.38-9.59,15.71,15.71,0,0,1,2.37-8L85.67,24.61H14.2Q0,24.61,0,12.54,0,0,14.2,0h94.67Q115,0,118.33,3.43Z" fill="#fdc005"/></g></g></svg>