<svg xmlns="http://www.w3.org/2000/svg" viewBox="0 0 143.12 180.22"><title>SIX</title><g id="Layer_2" data-name="Layer 2"><g id="Top_Layer" data-name="Top Layer"><path d="M104.12,145.88Q112,137.4,112,123.55t-7.88-22.2Q96.25,93,83.11,93q-13.38,0-21.61,8.47t-8.24,22.09q0,13.85,8.24,22.33t21.61,8.47Q96.24,154.35,104.12,145.88ZM116.3,75.44a47.43,47.43,0,0,1,18.27,19.1q6.56,12.3,6.56,28.06a57.6,57.6,0,0,1-7.28,29,51.94,51.94,0,0,1-20.06,19.94,58.36,58.36,0,0,1-29,7.16q-32,0-49.31-21.61T18.16,95.37q0-27.45,8.12-47.63T49.56,16.82Q64.72,6.07,85.26,6.07A81.11,81.11,0,0,1,112.6,11a71.25,71.25,0,0,1,23.28,13.25,18,18,0,0,1,4.42,5.13,13,13,0,0,1,1.31,6.09,13.89,13.89,0,0,1-3,9,8.85,8.85,0,0,1-7,3.7,12.4,12.4,0,0,1-4.54-.84,34,34,0,0,1-5.25-2.75Q102,30.67,86.45,30.67,69,30.67,59,46.78T48.49,92A41,41,0,0,1,65,75a48.36,48.36,0,0,1,24.6-6.33A52.16,52.16,0,0,1,116.3,75.44Z" fill="#18267a"/><path d="M84.78,180.22c-21.72,0-38.7-7.46-50.49-22.17s-17.64-35.7-17.64-62.68c0-18.41,2.77-34.63,8.23-48.2s13.5-24.29,23.81-31.59,22.62-11,36.57-11a82.91,82.91,0,0,1,27.85,5,73.15,73.15,0,0,1,23.77,13.54,19.42,19.42,0,0,1,4.76,5.57,14.63,14.63,0,0,1,1.48,6.79,15.34,15.34,0,0,1-3.32,9.91,10.34,10.34,0,0,1-8.22,4.26,14,14,0,0,1-5.09-.94A34.36,34.36,0,0,1,121,45.8c-13-9-24.57-13.62-34.55-13.62-11.16,0-19.72,5-26.17,15.4C54.44,57,51.06,70,50.2,86.27a43.21,43.21,0,0,1,14-12.62,50,50,0,0,1,25.35-6.53,54,54,0,0,1,27.5,7h0a49.19,49.19,0,0,1,18.84,19.7,60.34,60.34,0,0,1,6.75,28.77,59.23,59.23,0,0,1-7.49,29.76,53.63,53.63,0,0,1-20.63,20.51A60,60,0,0,1,84.78,180.22ZM85.26,7.58c-13.31,0-25,3.53-34.82,10.47S33,35.19,27.68,48.3s-8,29.05-8,47.07c0,26.27,5.72,46.72,17,60.78s27.38,21,48.13,21a57.12,57.12,0,0,0,28.27-7,50.8,50.8,0,0,0,19.49-19.37,56.33,56.33,0,0,0,7.08-28.26,57.47,57.47,0,0,0-6.39-27.35,46.26,46.26,0,0,0-17.69-18.51h0a51,51,0,0,0-26-6.61,47.17,47.17,0,0,0-23.84,6.13A39.66,39.66,0,0,0,49.83,92.72l-3,5.81L47,92c.32-19.61,3.93-35.09,10.74-46,6.95-11.17,16.62-16.83,28.74-16.83,10.61,0,22.79,4.75,36.21,14.12a31.86,31.86,0,0,0,4.93,2.58,10.87,10.87,0,0,0,4,.73,7.35,7.35,0,0,0,5.87-3.13,12.28,12.28,0,0,0,2.65-8A11.71,11.71,0,0,0,139,30.05a16.91,16.91,0,0,0-4.06-4.68,70.27,70.27,0,0,0-22.81-13A79.88,79.88,0,0,0,85.26,7.58ZM83.11,155.87c-9.3,0-16.93-3-22.7-8.94s-8.66-13.78-8.66-23.38c0-9.44,2.91-17.22,8.66-23.14s13.41-8.94,22.7-8.94,16.59,3,22.11,8.84,8.3,13.65,8.3,23.24-2.79,17.45-8.29,23.36S92.26,155.87,83.11,155.87Zm0-61.37c-8.45,0-15.35,2.7-20.53,8s-7.81,12.41-7.81,21c0,8.79,2.63,15.94,7.81,21.27s12.08,8,20.53,8c8.28,0,15-2.69,19.9-8h0c5-5.34,7.48-12.5,7.48-21.3S108,107.64,103,102.38,91.39,94.5,83.11,94.5Z" fill="#dd1e61"/><path d="M98.07,146.87q7.88-8.48,7.88-22.33t-7.88-22.2Q90.2,94,77.06,94q-13.38,0-21.61,8.47t-8.24,22.09q0,13.86,8.24,22.33t21.61,8.47Q90.19,155.34,98.07,146.87Zm12.18-70.44a47.54,47.54,0,0,1,18.26,19.1q6.57,12.3,6.57,28.06a57.57,57.57,0,0,1-7.28,29,52,52,0,0,1-20.06,19.94,58.36,58.36,0,0,1-29,7.16q-32,0-49.31-21.61T12.11,96.37q0-27.47,8.12-47.64T43.51,17.81Q58.66,7.06,79.2,7.06A81,81,0,0,1,106.54,12a71.2,71.2,0,0,1,23.29,13.25,18,18,0,0,1,4.41,5.13,12.92,12.92,0,0,1,1.32,6.09,13.82,13.82,0,0,1-3,9,8.83,8.83,0,0,1-7,3.7,12.33,12.33,0,0,1-4.54-.84,33.78,33.78,0,0,1-5.25-2.74Q95.91,31.67,80.4,31.66,63,31.66,52.94,47.77T42.43,93A41,41,0,0,1,58.91,76,48.45,48.45,0,0,1,83.5,69.62,52.23,52.23,0,0,1,110.25,76.43Z" fill="#00092a"/><path d="M91,142.83q7.88-8.47,7.88-22.32T91,98.3q-7.89-8.35-21-8.36-13.36,0-21.61,8.48t-8.23,22.09q0,13.85,8.23,22.32T70,151.31Q83.13,151.31,91,142.83Zm12.17-70.44a47.56,47.56,0,0,1,18.27,19.1Q128,103.81,128,119.55a57.45,57.45,0,0,1-7.29,29,51.85,51.85,0,0,1-20,19.94,58.27,58.27,0,0,1-29,7.16q-32,0-49.3-21.6T5,92.33q0-27.45,8.12-47.64T36.44,13.77Q51.61,3,72.14,3A81,81,0,0,1,99.48,7.92a71.43,71.43,0,0,1,23.28,13.25,18.16,18.16,0,0,1,4.42,5.14,13,13,0,0,1,1.31,6.09,13.81,13.81,0,0,1-3,9,8.83,8.83,0,0,1-7,3.7,12.32,12.32,0,0,1-4.54-.83,33.53,33.53,0,0,1-5.25-2.75Q88.85,27.63,73.34,27.62q-17.45,0-27.46,16.12T35.37,89A40.91,40.91,0,0,1,51.85,71.91a48.44,48.44,0,0,1,24.59-6.32A52.26,52.26,0,0,1,103.18,72.39Z" fill="#ed6c02"/><path d="M86,139.81q7.88-8.48,7.88-22.33T86,95.27q-7.87-8.35-21-8.35-13.38,0-21.61,8.47T35.1,117.48q0,13.84,8.24,22.33T65,148.28Q78.08,148.28,86,139.81ZM98.14,69.37a47.43,47.43,0,0,1,18.27,19.1q6.56,12.3,6.56,28.05a57.61,57.61,0,0,1-7.28,29,51.92,51.92,0,0,1-20.06,19.93,58.26,58.26,0,0,1-29,7.17q-32,0-49.31-21.61T0,89.3Q0,61.85,8.12,41.67T31.4,10.74Q46.57,0,67.1,0A81.1,81.1,0,0,1,94.44,4.89a71.45,71.45,0,0,1,23.28,13.26,18,18,0,0,1,4.42,5.13,13,13,0,0,1,1.31,6.09,13.84,13.84,0,0,1-3,9,8.85,8.85,0,0,1-7,3.7,12.39,12.39,0,0,1-4.54-.83,34,34,0,0,1-5.25-2.75Q83.82,24.6,68.29,24.59q-17.43,0-27.46,16.12T30.33,86A41,41,0,0,1,46.8,68.89a48.36,48.36,0,0,1,24.6-6.33A52.19,52.19,0,0,1,98.14,69.37Z" fill="#fdc005"/></g></g></svg>