<svg xmlns="http://www.w3.org/2000/svg" viewBox="0 0 141.49 183.22"><title>THREE</title><g id="Layer_2" data-name="Layer 2"><g id="Top_Layer" data-name="Top Layer"><path d="M131.78,105.73q8.16,10.84,8.17,26.94,0,22.19-16.34,35.34T79.49,181.18A95.8,95.8,0,0,1,49,176.3a73.28,73.28,0,0,1-24.86-13.65q-5.61-4.87-5.61-11.46a14.06,14.06,0,0,1,3.05-9.14,9,9,0,0,1,7.19-3.78,10.85,10.85,0,0,1,4.39.86c1.3.57,3.08,1.5,5.36,2.8A105,105,0,0,0,58,152.41a54.61,54.61,0,0,0,20.24,3.66q16.08,0,23.89-6.46T110,130q0-12.91-8.17-19.13t-25.23-6.22H62.67q-5.61,0-8.66-3.78a14,14,0,0,1,0-17.43q3-3.66,8.66-3.66h9.75q33.39,0,33.4-25.1,0-11.71-7.07-18T79.24,30.28q-17.79,0-38,14.14a60.27,60.27,0,0,1-5.36,2.8,10.85,10.85,0,0,1-4.39.85,9,9,0,0,1-7.19-3.78,14.08,14.08,0,0,1-3.05-9.14,13.25,13.25,0,0,1,1.34-6.21,19.79,19.79,0,0,1,4.27-5.25,78.63,78.63,0,0,1,24.5-13.53,87.8,87.8,0,0,1,29.13-5q25.35,0,40.35,12.43t15,33.15a44.46,44.46,0,0,1-7.43,24.75A41.09,41.09,0,0,1,108.25,91Q123.61,94.88,131.78,105.73Z" fill="#18267a"/><path d="M79.49,182.72a97.63,97.63,0,0,1-31-4.95,75.34,75.34,0,0,1-25.39-13.94C19.06,160.28,17,156,17,151.19a15.66,15.66,0,0,1,3.39-10.11,10.51,10.51,0,0,1,8.39-4.35,12.51,12.51,0,0,1,5,1c1.36.6,3.16,1.54,5.51,2.88l.09,0A104.44,104.44,0,0,0,58.6,151a53.46,53.46,0,0,0,19.67,3.54c10.3,0,18-2.05,22.9-6.1s7.25-10.18,7.25-18.44-2.48-14-7.56-17.9-13.32-5.9-24.3-5.9H62.67c-4.22,0-7.54-1.47-9.86-4.36a15.52,15.52,0,0,1,0-19.39c2.32-2.79,5.63-4.21,9.84-4.21h9.75c21.43,0,31.85-7.71,31.85-23.56,0-7.41-2.14-12.94-6.56-16.9S87.1,31.82,79.24,31.82c-11.48,0-24,4.67-37.14,13.86l-.12.08c-2.34,1.34-4.15,2.28-5.51,2.88a12.44,12.44,0,0,1-5,1,10.52,10.52,0,0,1-8.39-4.36,15.63,15.63,0,0,1-3.39-10.11,14.77,14.77,0,0,1,1.52-6.93,21.11,21.11,0,0,1,4.59-5.66,80.18,80.18,0,0,1,25-13.85A89.33,89.33,0,0,1,80.46,3.62c17.2,0,31.1,4.3,41.33,12.79s15.56,20.11,15.56,34.34a46.22,46.22,0,0,1-7.71,25.62,41.81,41.81,0,0,1-16.83,14.34c8.55,2.9,15.33,7.62,20.2,14.09h0c5.63,7.48,8.48,16.85,8.48,27.87,0,15.21-5.69,27.5-16.91,36.55S98.29,182.72,79.49,182.72Zm-50.71-42.9a7.51,7.51,0,0,0-6,3.2,12.49,12.49,0,0,0-2.7,8.17c0,4,1.66,7.33,5.07,10.3A72.32,72.32,0,0,0,49.5,174.84a94.73,94.73,0,0,0,30,4.79c18.08,0,32.6-4.31,43.15-12.82s15.76-19.91,15.76-34.14c0-10.33-2.64-19.08-7.85-26h0c-5.21-6.91-12.84-11.68-22.68-14.18l-4.76-1.21,4.6-1.74a39.73,39.73,0,0,0,19.38-14.9,43.18,43.18,0,0,0,7.17-23.9c0-13.24-4.86-24-14.44-31.94S96.92,6.71,80.46,6.71a86.42,86.42,0,0,0-28.62,4.91,77.22,77.22,0,0,0-24,13.26,18.39,18.39,0,0,0-3.89,4.77,11.87,11.87,0,0,0-1.16,5.5,12.46,12.46,0,0,0,2.7,8.17,7.5,7.5,0,0,0,6,3.21,9.35,9.35,0,0,0,3.77-.73,56.67,56.67,0,0,0,5.16-2.69c13.67-9.54,26.74-14.38,38.85-14.38,8.64,0,15.55,2.27,20.54,6.73s7.58,11,7.58,19.2c0,17.68-11.76,26.65-34.94,26.65H62.67c-3.29,0-5.73,1-7.47,3.1a12.45,12.45,0,0,0,0,15.47c1.74,2.16,4.18,3.21,7.46,3.21H76.56c11.67,0,20.47,2.19,26.17,6.53s8.78,11.28,8.78,20.36-2.82,16.23-8.37,20.82-13.83,6.81-24.87,6.81a56.32,56.32,0,0,1-20.8-3.76,107.28,107.28,0,0,1-19.75-10.6c-2.2-1.26-3.94-2.17-5.17-2.71A9.39,9.39,0,0,0,28.78,139.82Z" fill="#dd1e61"/><path d="M125.6,107.77q8.16,10.86,8.17,26.94,0,22.18-16.34,35.35T73.31,183.22a95.74,95.74,0,0,1-30.48-4.87A73.28,73.28,0,0,1,18,164.7q-5.61-4.87-5.61-11.46a14,14,0,0,1,3.05-9.14,9,9,0,0,1,7.19-3.78,10.85,10.85,0,0,1,4.39.85c1.3.57,3.08,1.5,5.36,2.8a105.14,105.14,0,0,0,19.5,10.49,54.81,54.81,0,0,0,20.24,3.65q16.08,0,23.89-6.46t7.8-19.62q0-12.91-8.17-19.14t-25.23-6.22H56.49q-5.61,0-8.66-3.77a13.43,13.43,0,0,1-3-8.66,13.25,13.25,0,0,1,3-8.77q3-3.66,8.66-3.66h9.75q33.39,0,33.4-25.11,0-11.7-7.07-18T73.06,32.32q-17.79,0-38,14.14a59,59,0,0,1-5.36,2.8,10.85,10.85,0,0,1-4.39.86,9,9,0,0,1-7.19-3.78A14.12,14.12,0,0,1,15,37.2,13.32,13.32,0,0,1,16.38,31a19.77,19.77,0,0,1,4.27-5.24,78.23,78.23,0,0,1,24.5-13.53,87.56,87.56,0,0,1,29.13-5q25.35,0,40.35,12.43t15,33.16a44.43,44.43,0,0,1-7.43,24.74A41.09,41.09,0,0,1,102.07,93Q117.43,96.92,125.6,107.77Z" fill="#00092a"/><path d="M118.39,103.65q8.16,10.86,8.16,26.94,0,22.18-16.33,35.35T66.1,179.1a95.74,95.74,0,0,1-30.48-4.87,73.28,73.28,0,0,1-24.86-13.65q-5.61-4.87-5.61-11.46a14.09,14.09,0,0,1,3-9.15,9,9,0,0,1,7.19-3.77,10.88,10.88,0,0,1,4.39.85c1.3.57,3.08,1.5,5.36,2.8a105.73,105.73,0,0,0,19.5,10.49A54.81,54.81,0,0,0,64.88,154q16.08,0,23.89-6.46t7.8-19.62q0-12.91-8.17-19.14t-25.23-6.22H49.28q-5.62,0-8.66-3.77a13.43,13.43,0,0,1-3-8.66,13.25,13.25,0,0,1,3-8.77q3-3.66,8.66-3.66H59q33.39,0,33.4-25.11,0-11.7-7.07-18T65.85,28.2q-17.79,0-38,14.14a59,59,0,0,1-5.36,2.8,10.85,10.85,0,0,1-4.39.86,9,9,0,0,1-7.19-3.78,14.12,14.12,0,0,1-3.05-9.14,13.32,13.32,0,0,1,1.34-6.22,19.77,19.77,0,0,1,4.27-5.24A78.11,78.11,0,0,1,37.94,8.09a87.56,87.56,0,0,1,29.13-5q25.35,0,40.35,12.43c10,8.29,15.11,19.35,15,33.16A43.8,43.8,0,0,1,115,73.42,41.09,41.09,0,0,1,94.86,88.9Q110.22,92.8,118.39,103.65Z" fill="#ed6c02"/><path d="M113.24,100.56q8.16,10.85,8.16,26.94,0,22.19-16.33,35.35T61,176a95.74,95.74,0,0,1-30.48-4.87A73.28,73.28,0,0,1,5.61,157.49Q0,152.62,0,146a14.09,14.09,0,0,1,3.05-9.15,9,9,0,0,1,7.19-3.77,10.88,10.88,0,0,1,4.39.85c1.3.57,3.08,1.5,5.36,2.8a105.41,105.41,0,0,0,19.5,10.49,54.81,54.81,0,0,0,20.24,3.65q16.08,0,23.89-6.46t7.8-19.62q0-12.91-8.17-19.14T58,99.46H44.12q-5.61,0-8.65-3.77a13.43,13.43,0,0,1-3-8.66,13.29,13.29,0,0,1,3-8.78q3-3.65,8.65-3.65h9.76q33.39,0,33.39-25.11,0-11.7-7.07-18T60.7,25.11q-17.79,0-38,14.14a59,59,0,0,1-5.36,2.8,10.85,10.85,0,0,1-4.39.86,9,9,0,0,1-7.19-3.78A14.06,14.06,0,0,1,2.68,30,13.32,13.32,0,0,1,4,23.77a19.77,19.77,0,0,1,4.27-5.24A78.11,78.11,0,0,1,32.79,5,87.56,87.56,0,0,1,61.92,0q25.35,0,40.35,12.43t15,33.16a44.36,44.36,0,0,1-7.44,24.74A41.06,41.06,0,0,1,89.71,85.81Q105.07,89.71,113.24,100.56Z" fill="#fdc005"/></g></g></svg>