<svg xmlns="http://www.w3.org/2000/svg" viewBox="0 0 142.01 181.7"><title>TWO_1</title><g id="Layer_2" data-name="Layer 2"><g id="Top_Layer" data-name="Top Layer"><path d="M140.48,167.4q0,12.78-14.46,12.77H34.47q-6.27,0-9.88-3.73A12.81,12.81,0,0,1,21,167.16a18.33,18.33,0,0,1,5.54-13l54.93-59Q91.58,84,96.27,74.76A40.51,40.51,0,0,0,101,56.33Q101,45,94.46,39T75.91,33A50.87,50.87,0,0,0,56.75,36.7,96.39,96.39,0,0,0,38.08,46.93a29.83,29.83,0,0,1-4.82,2.78,11.67,11.67,0,0,1-4.82,1.08c-2.73,0-5.1-1.28-7.1-3.86a14.39,14.39,0,0,1-3-9.15,13.93,13.93,0,0,1,1.33-6.27,16,16,0,0,1,4.22-5.05A83.32,83.32,0,0,1,48.68,13.08,86.22,86.22,0,0,1,77.11,8.14q24.81,0,39.64,12.53T131.56,54.4A62.36,62.36,0,0,1,125.3,82q-6.27,12.9-21.2,28.79L62.42,155.11H126Q140.48,155.11,140.48,167.4Z" fill="#18267a"/><path d="M126,181.7H34.47c-4.59,0-8.28-1.41-11-4.2a14.35,14.35,0,0,1-4-10.34,19.93,19.93,0,0,1,6-14.07l54.92-59c6.61-7.24,11.52-14,14.57-20a39.13,39.13,0,0,0,4.54-17.74c0-7.07-2-12.53-6-16.23s-9.92-5.61-17.51-5.61a49.69,49.69,0,0,0-18.59,3.62A95,95,0,0,0,39,48.19a32.22,32.22,0,0,1-5.06,2.91,13.22,13.22,0,0,1-5.45,1.22c-3.21,0-6-1.5-8.31-4.45A16,16,0,0,1,16.8,37.78a15.5,15.5,0,0,1,1.48-7,17.67,17.67,0,0,1,4.61-5.55A85.52,85.52,0,0,1,48.18,11.64a88.23,88.23,0,0,1,28.93-5c16.84,0,30.5,4.33,40.62,12.89s15.36,20.36,15.36,34.89a64.1,64.1,0,0,1-6.42,28.26c-4.22,8.69-11.45,18.51-21.46,29.17L66,153.59H126c13.21,0,16,7.51,16,13.81C142,173.92,139.23,181.7,126,181.7ZM75.91,31.43c8.39,0,15,2.17,19.59,6.43s7,10.52,7,18.47a42.15,42.15,0,0,1-4.86,19.12c-3.18,6.28-8.25,13.25-15,20.7l-54.95,59a16.78,16.78,0,0,0-5.13,12,11.23,11.23,0,0,0,3.19,8.22c2.12,2.2,5,3.26,8.78,3.26H126c8.82,0,12.93-3.57,12.93-11.24,0-7.34-4.11-10.76-12.93-10.76H58.88l44.1-46.9c9.81-10.44,16.85-20,21-28.42A61.11,61.11,0,0,0,130,54.4c0-13.59-4.81-24.55-14.28-32.56S93.21,9.67,77.11,9.67a84.9,84.9,0,0,0-27.93,4.86A82.25,82.25,0,0,0,24.82,27.65,14.49,14.49,0,0,0,21,32.2a12.29,12.29,0,0,0-1.17,5.58A12.79,12.79,0,0,0,22.54,46c1.72,2.2,3.65,3.27,5.9,3.27a10.27,10.27,0,0,0,4.2-.95,28.61,28.61,0,0,0,4.57-2.63,97.57,97.57,0,0,1,19-10.4A52.67,52.67,0,0,1,75.91,31.43Z" fill="#dd1e61"/><path d="M134.37,166.38q0,12.78-14.46,12.77H28.36q-6.27,0-9.88-3.73a12.81,12.81,0,0,1-3.61-9.28,18.33,18.33,0,0,1,5.54-13l54.93-59Q85.47,83,90.16,73.74a40.51,40.51,0,0,0,4.7-18.43Q94.86,44,88.35,38t-18.55-6a50.78,50.78,0,0,0-19.15,3.74A95.7,95.7,0,0,0,32,45.92a30.07,30.07,0,0,1-4.82,2.77,11.66,11.66,0,0,1-4.81,1.08q-4.11,0-7.11-3.85a14.41,14.41,0,0,1-3-9.16,13.89,13.89,0,0,1,1.32-6.26,15.92,15.92,0,0,1,4.22-5.06A83.42,83.42,0,0,1,42.57,12.07,86.26,86.26,0,0,1,71,7.13q24.82,0,39.64,12.52t14.82,33.74A62.22,62.22,0,0,1,119.19,81q-6.27,12.9-21.2,28.79L56.31,154.1h63.6Q134.37,154.1,134.37,166.38Z" fill="#00092a"/><path d="M127.24,162.31q0,12.78-14.45,12.77H21.23q-6.27,0-9.88-3.73a12.85,12.85,0,0,1-3.61-9.28,18.35,18.35,0,0,1,5.54-13L68.22,90Q78.33,79,83,69.67a40.51,40.51,0,0,0,4.7-18.43q0-11.33-6.5-17.35t-18.56-6A51,51,0,0,0,43.52,31.6,96.41,96.41,0,0,0,24.85,41.84,30.26,30.26,0,0,1,20,44.62a11.74,11.74,0,0,1-4.82,1.08c-2.73,0-5.1-1.28-7.11-3.86a14.39,14.39,0,0,1-3-9.15,13.8,13.8,0,0,1,1.33-6.27,16,16,0,0,1,4.21-5.05A83.5,83.5,0,0,1,35.45,8,86.17,86.17,0,0,1,63.88,3.05q24.81,0,39.63,12.53t14.82,33.73a62.36,62.36,0,0,1-6.26,27.59q-6.27,12.9-21.21,28.79L49.18,150h63.61Q127.25,150,127.24,162.31Z" fill="#ed6c02"/><path d="M122.15,159.26q0,12.77-14.45,12.77H16.14q-6.27,0-9.88-3.74A12.8,12.8,0,0,1,2.65,159a18.35,18.35,0,0,1,5.54-13L63.12,87Q73.25,75.9,77.94,66.62a40.54,40.54,0,0,0,4.7-18.43q0-11.32-6.5-17.35t-18.56-6a50.81,50.81,0,0,0-19.15,3.73A95.35,95.35,0,0,0,19.76,38.79a29.43,29.43,0,0,1-4.82,2.77,11.75,11.75,0,0,1-4.82,1.09Q6,42.65,3,38.79a14.41,14.41,0,0,1-3-9.16,13.79,13.79,0,0,1,1.33-6.26,16,16,0,0,1,4.21-5.06A83.48,83.48,0,0,1,30.36,4.94,86.17,86.17,0,0,1,58.79,0Q83.6,0,98.42,12.53t14.82,33.73A62.36,62.36,0,0,1,107,73.85q-6.27,12.89-21.21,28.79L44.09,147H107.7Q122.15,147,122.15,159.26Z" fill="#fdc005"/></g></g></svg>