<svg xmlns="http://www.w3.org/2000/svg" viewBox="0 0 145.2 183.22"><title>ONE</title><g id="Layer_2" data-name="Layer 2"><g id="Top_Layer" data-name="Top Layer"><path d="M127.59,26.67Q111.53,4.16,81.09,4.15T34.58,26.67Q18.52,49.2,18.52,92q0,43.09,16.06,65.61t46.51,22.52q30.42,0,46.5-22.64T143.66,92Q143.66,49.2,127.59,26.67Zm-22.4,113.7q-7.55,15.21-24.1,15.21T57,140.37Q49.44,125.16,49.44,92T57,43.84q7.55-15.1,24.11-15.1t24.1,15q7.55,15,7.55,48.33Q112.74,125.16,105.19,140.37Z" fill="#18267a"/><path d="M81.09,181.72c-20.73,0-36.79-7.8-47.76-23.17C22.48,143.34,17,121,17,92,17,63.28,22.48,41,33.33,25.78c11-15.38,27-23.17,47.76-23.17s36.78,7.79,47.75,23.17h0C139.7,41,145.2,63.28,145.2,92s-5.5,51.09-16.35,66.38C117.88,173.88,101.81,181.72,81.09,181.72Zm0-176c-19.67,0-34.89,7.36-45.25,21.88C25.37,42.25,20.06,63.94,20.06,92c0,28.27,5.31,50,15.78,64.72,10.36,14.51,25.58,21.87,45.25,21.87s34.88-7.4,45.24-22c10.47-14.76,15.78-36.49,15.78-64.6s-5.31-49.79-15.78-64.47C116,13.05,100.75,5.69,81.09,5.69Zm0,151.44c-11.63,0-20.2-5.41-25.49-16.08-5.11-10.3-7.71-26.79-7.71-49s2.6-38.66,7.71-48.89C60.89,32.56,69.47,27.2,81.09,27.2S101.27,32.52,106.57,43c5.11,10.16,7.71,26.65,7.71,49,0,22.21-2.59,38.7-7.71,49h0C101.28,151.72,92.71,157.13,81.09,157.13Zm0-126.85c-10.5,0-17.94,4.66-22.73,14.25C53.46,54.33,51,70.31,51,92s2.48,37.76,7.39,47.64C63.16,149.34,70.59,154,81.09,154s17.92-4.7,22.72-14.36h0c4.9-9.88,7.38-25.91,7.38-47.64,0-21.88-2.48-37.91-7.38-47.63C99,34.9,91.59,30.28,81.09,30.28Z" fill="#dd1e61"/><path d="M121.41,29.72Q105.35,7.21,74.91,7.2T28.41,29.72Q12.35,52.25,12.34,95.09q0,43.1,16.07,65.61t46.5,22.52q30.44,0,46.5-22.64t16.07-65.49Q137.48,52.25,121.41,29.72ZM99,143.42q-7.56,15.21-24.11,15.21t-24.1-15.21q-7.55-15.21-7.55-48.33t7.55-48.2q7.55-15.1,24.1-15.1T99,46.76q7.55,15,7.54,48.33Q106.56,128.21,99,143.42Z" fill="#00092a"/><path d="M114.21,25.61Q98.15,3.09,67.71,3.09T21.21,25.61Q5.15,48.13,5.14,91q0,43.08,16.07,65.61t46.5,22.52q30.44,0,46.5-22.64T130.28,91Q130.28,48.12,114.21,25.61ZM91.82,139.3q-7.56,15.22-24.11,15.22T43.61,139.3Q36.07,124.09,36.06,91t7.55-48.21q7.55-15.09,24.1-15.09t24.11,15q7.53,15,7.54,48.33Q99.36,124.09,91.82,139.3Z" fill="#ed6c02"/><path d="M109.07,22.52Q93,0,62.57,0T16.07,22.52Q0,45.05,0,87.89,0,131,16.07,153.5T62.57,176q30.43,0,46.5-22.64t16.07-65.49Q125.14,45,109.07,22.52Zm-22.4,113.7q-7.55,15.21-24.1,15.21t-24.1-15.21Q30.91,121,30.92,87.89t7.55-48.21Q46,24.59,62.57,24.59t24.1,15q7.55,15,7.55,48.33Q94.22,121,86.67,136.22Z" fill="#fdc005"/></g></g></svg>